<?xml version="1.0" encoding="UTF-8"?>
<svg id="Layer_1" data-name="Layer 1" xmlns="http://www.w3.org/2000/svg" viewBox="0 0 260.53 327.15">
  <defs>
    <style>
      .cls-1 {
        fill: #fff;
      }

      .cls-2 {
        fill: #d42300;
      }

      .cls-3 {
        fill: #d3d3d3;
      }

      .cls-4 {
        fill: #231f20;
      }

      .cls-5 {
        fill: gray;
      }
    </style>
  </defs>
  <g>
    <path class="cls-5" d="m74.91,35.58c-12.65-3.61-26.45,4.31-33.22,15.59s-7.87,25.05-7.42,38.19c.67,19.39,6.21,41.33,23.44,50.26,4.73,2.45,9.99,3.69,15.18,4.91,17.38,4.07,36,8.07,52.69,1.74,12.97-4.92,23.24-15.88,28.53-28.7,5.3-12.82,5.86-27.33,2.89-40.88-1.22-5.57-3.08-11.12-6.53-15.66-3.12-4.11-7.39-7.18-11.71-10-23.41-15.27-52.42-25.08-79.38-17.73"/>
    <path class="cls-4" d="m75.58,33.17c-12.51-3.46-25.66,3.02-33.35,12.87-8.85,11.33-10.74,26.39-10.53,40.34.18,12.09,1.86,24.42,6.88,35.52,2.34,5.19,5.56,10.08,9.7,14.01,4.89,4.64,10.84,7.53,17.29,9.36,7.32,2.07,14.88,3.69,22.37,5s15.18,2.17,22.81,1.64c7.15-.5,14.17-2.2,20.57-5.48,5.66-2.89,10.77-6.97,14.97-11.73,9.4-10.63,14.27-24.33,14.92-38.42.35-7.48-.47-15.08-2.29-22.35-1.79-7.14-4.95-13.75-10.46-18.76s-11.73-8.6-17.98-12.04-12.97-6.52-19.8-8.94c-13.3-4.71-27.71-7.08-41.78-5.29-3.44.44-6.83,1.08-10.18,1.98-3.1.84-1.79,5.66,1.33,4.82,26.26-7.07,53.84,2.43,76.02,16.55,5.55,3.53,11.05,7.38,14.35,13.23,3.31,5.88,4.74,12.95,5.45,19.6,1.42,13.3-.7,27.09-7.67,38.65-6.2,10.27-15.92,18.32-27.57,21.51-13.84,3.79-28.49,1.08-42.19-2-6.75-1.52-13.94-2.76-20.09-6.1-4.55-2.48-8.4-6.08-11.33-10.35-6.1-8.88-8.77-19.82-9.8-30.42-1.23-12.6-1.08-26.22,3.7-38.12,4.19-10.45,13.71-19.89,25.39-20.95,2.69-.24,5.33-.03,7.93.69,3.11.86,4.43-3.96,1.33-4.82h0Z"/>
  </g>
  <path class="cls-4" d="m83.15,91.97c1.47,2.52,3.46,4.61,5.82,6.3.68.49,1.84.45,2.52,0,2.57-1.71,4.72-4.06,6.03-6.87.39-.83.48-1.7,0-2.52-.45-.77-1.27-1.22-2.16-1.24-2.39-.05-4.78-.1-7.16-.15-1.31-.03-2.56,1.17-2.5,2.5s1.1,2.47,2.5,2.5c2.39.05,4.78.1,7.16.15l-2.16-3.76c-.28.59-.58,1.16-.94,1.71-.16.25-.33.5-.51.74-.05.07-.1.13-.15.2.21-.27.26-.33.14-.19-.11.12-.21.25-.31.38-.41.47-.84.92-1.31,1.34-.12.11-.24.22-.37.32l-.13.1c-.21.17-.17.14.12-.09-.09.2-.62.45-.8.56h2.52c-.12-.09-.27-.23-.41-.3.12.06.36.29.11.08-.24-.19-.47-.39-.7-.59-.44-.39-.85-.8-1.25-1.24-.19-.21-.37-.42-.55-.63-.05-.06-.38-.43-.12-.14s-.06-.08-.11-.15c-.36-.5-.7-1.01-1.01-1.54-.66-1.13-2.29-1.63-3.42-.9s-1.6,2.21-.9,3.42h0Z"/>
  <g>
    <path class="cls-3" d="m86.02,89.22c-6.15.21-12.28,1.04-18.26,2.47-4.42,1.06-9.15,2.73-11.52,6.6-1.33,2.17-1.75,4.77-1.81,7.31-.17,6.38,1.85,12.96,6.26,17.58,5.88,6.17,14.86,8.01,23.25,9.54,8.45,1.55,17.03,3.1,25.59,2.38,7.2-.6,14.87-3.28,18.55-9.49,2.24-3.78,2.7-8.33,2.88-12.72.17-4.05.09-8.32-1.91-11.84-2.84-5.01-8.77-7.25-14.31-8.83-7.49-2.14-15.13-3.74-22.85-4.8"/>
    <path class="cls-4" d="m86.02,86.72c-7.48.28-15.4,1.14-22.53,3.59-2.92,1-5.85,2.43-7.94,4.77-2.52,2.81-3.46,6.41-3.62,10.11-.29,6.64,1.7,13.41,5.92,18.58s10.38,7.84,16.58,9.5c7,1.88,14.34,3.05,21.52,3.93s14.27,1.09,21.06-.9c5.99-1.76,11.59-5.4,14.16-11.28,1.44-3.29,1.96-6.83,2.18-10.39s.32-7.25-.56-10.75c-1.87-7.44-8.45-11.22-15.28-13.41-8.1-2.59-16.56-4.27-24.98-5.44-1.34-.18-2.68.32-3.08,1.75-.32,1.17.4,2.89,1.75,3.08,7.01.97,13.95,2.37,20.78,4.22,4.89,1.33,10.84,2.8,14.09,7.04,1.75,2.29,2.29,5.18,2.4,8,.11,3,0,6.14-.5,9.1-.47,2.76-1.33,5.5-3.13,7.69-1.61,1.95-3.72,3.38-6.01,4.43-5.28,2.43-11.37,2.69-17.09,2.39-6.81-.35-13.56-1.65-20.24-2.96-5.53-1.09-11.2-2.45-15.93-5.65s-7.52-8.38-8.41-13.97c-.47-2.97-.55-6.44.56-9.27,1.04-2.66,3.46-4.31,6.03-5.34,3.29-1.32,6.89-1.99,10.37-2.59,3.93-.68,7.9-1.06,11.89-1.21,3.21-.12,3.22-5.12,0-5h0Z"/>
  </g>
  <g>
    <path class="cls-2" d="m71.58,115.35c4.97-4.7,11.02-8.43,17.72-9.83s14.06-.29,19.55,3.79c2.06,1.53,3.98,3.94,3.37,6.43-.58,2.38-3.28,3.69-5.74,3.7s-4.8-.94-7.19-1.49c-7.47-1.73-15.22.38-22.75,1.81-1.37.26-2.86.48-4.1-.15s-1.92-2.49-.92-3.45"/>
    <path class="cls-4" d="m73.35,117.12c7.75-7.26,18.63-12.09,29.2-8.37,2.31.81,4.86,2.13,6.42,4.08,1.21,1.52,1.1,3.08-.8,3.81-2.48.96-5.34-.39-7.75-.99-3.08-.76-6.28-.97-9.43-.77-3.68.23-7.32.92-10.93,1.64-1.65.33-3.33.8-5,.97-.41.04-1.04-.03-1.33.01l-.22-.21h.04c.14-.06-.5.93-.24.64.88-1.02,1-2.53,0-3.54-.9-.9-2.65-1.03-3.54,0-2.59,3-.51,7.31,3.2,7.99,1.89.34,3.79-.12,5.64-.48,2.01-.4,4.02-.82,6.05-1.19,3.77-.69,7.61-1.15,11.44-.78s7.28,2.29,11.08,1.97c3.27-.27,6.6-2.14,7.48-5.5.99-3.78-1.67-7.15-4.52-9.26-5.66-4.18-13.05-5.36-19.89-4.33-7.77,1.18-14.75,5.45-20.41,10.75-2.35,2.21,1.19,5.74,3.54,3.54h0Z"/>
  </g>
  <path class="cls-4" d="m88.74,95.86c-.47,2.63-.36,5.35.57,7.88.23.62.56,1.15,1.15,1.49.54.31,1.33.45,1.93.25s1.19-.57,1.49-1.15.48-1.3.25-1.93c-.31-.86-.53-1.74-.66-2.65l.09.66c-.14-1.1-.14-2.21,0-3.32l-.09.66c.03-.2.06-.39.09-.59.12-.67.11-1.32-.25-1.93-.3-.52-.9-1.01-1.49-1.15-.64-.15-1.36-.11-1.93.25-.52.33-1.03.86-1.15,1.49h0Z"/>
  <path class="cls-4" d="m80.34,111.49c.69,1.19,2.01,1.88,3.38,1.88.07,0,.13,0,.2-.01.28-.03.56-.06.84-.12.24-.05.45-.15.67-.24.53-.22,1.03-.5,1.41-.95.18-.21.35-.42.5-.65.04-.06.07-.13.1-.19.11-.25.24-.5.31-.77.07-.29.1-.59.12-.88.01-.34-.06-.67-.22-.96-.1-.31-.27-.58-.52-.8-.23-.24-.49-.42-.8-.52-.3-.16-.62-.23-.96-.22-.65.03-1.32.24-1.77.73l-.39.51c-.23.39-.34.81-.34,1.26,0,.03,0,.06,0,.09l.09-.66c-.01.1-.04.2-.08.3l.25-.6c-.04.1-.1.2-.17.28l.39-.51c-.07.09-.16.18-.25.25l.51-.39c-.12.09-.25.17-.39.23l.6-.25c-.16.07-.33.11-.5.14l.66-.09c-.16.02-.32.02-.49,0l.66.09c-.13-.02-.26-.05-.38-.1l.6.25c-.1-.04-.2-.1-.29-.16l.51.39c-.08-.06-.15-.13-.22-.22l.39.51s-.07-.09-.1-.15c-.16-.29-.37-.53-.64-.7-.24-.22-.52-.37-.85-.45-.33-.1-.66-.12-1-.04-.33.02-.64.11-.93.3-.53.34-1,.86-1.15,1.49s-.09,1.33.25,1.93h0Z"/>
  <path class="cls-4" d="m100.21,106.69l-1.19,2.88c-.12.44-.12.89,0,1.33.08.33.23.61.45.85.18.27.41.49.7.64.39.23.81.34,1.26.34.12,0,.23,0,.35,0,.32-.03.65-.06.96-.15s.6-.23.88-.36c.11-.05.22-.11.32-.19.25-.18.52-.37.74-.59s.41-.49.59-.74c.07-.09.13-.19.18-.3.14-.29.28-.59.37-.9.1-.33.12-.66.04-1-.02-.33-.11-.64-.3-.93-.16-.29-.37-.53-.64-.7-.24-.22-.52-.37-.85-.45-.64-.15-1.36-.11-1.93.25s-.97.85-1.15,1.49c-.02.08-.05.16-.08.23l.25-.6c-.06.14-.14.27-.23.39l.39-.51c-.11.14-.24.26-.38.37l.51-.39c-.13.1-.27.18-.42.25l.6-.25c-.15.06-.31.11-.47.13l.66-.09c-.14.02-.27.02-.41.01l2.41,3.16,1.19-2.88c.1-.33.12-.66.04-1-.02-.33-.11-.64-.3-.93-.16-.29-.37-.53-.64-.7-.24-.22-.52-.37-.85-.45-.64-.15-1.36-.11-1.93.25l-.51.39c-.31.31-.52.68-.64,1.1h0Z"/>
  <g>
    <path class="cls-1" d="m68.32,91.53c-1.9-4.09-3.82-8.25-4.53-12.7s-.08-9.32,2.72-12.86c.84-1.07,1.96-2.04,3.32-2.2,1.59-.18,3.08.8,4.22,1.92,5.61,5.51,6.05,14.25,6.13,22.11"/>
    <path class="cls-4" d="m70.48,90.27c-2.86-6.17-6.49-13.94-3.27-20.69.52-1.08,1.36-2.75,2.57-3.23,1.28-.5,2.68,1.25,3.39,2.07,2.01,2.32,3.03,5.34,3.65,8.3.75,3.64.83,7.39.87,11.09.04,3.22,5.04,3.22,5,0-.09-8.08-.56-17.08-6.35-23.34-1.59-1.72-3.69-3.18-6.11-3.21s-4.46,1.59-5.87,3.46c-2.68,3.53-3.62,8.17-3.25,12.53.47,5.53,2.76,10.58,5.06,15.55.57,1.22,2.33,1.53,3.42.9,1.26-.73,1.47-2.19.9-3.42h0Z"/>
  </g>
  <g>
    <path class="cls-1" d="m109.16,89.25c1.13-3.72,2.29-7.5,4.41-10.76s5.38-5.99,9.22-6.56c1.67-.25,3.59.02,4.66,1.32,1.13,1.38.93,3.39.55,5.13-1.33,6.05-4.18,11.76-8.22,16.45"/>
    <path class="cls-4" d="m111.57,89.91c1.68-5.52,3.62-12.08,9.25-14.8,1.44-.7,4.75-1.64,4.97.58.13,1.27-.34,2.69-.68,3.91-.42,1.51-.92,3.01-1.53,4.45-1.39,3.26-3.29,6.33-5.58,9.02-.87,1.03-1.01,2.53,0,3.54.9.9,2.66,1.03,3.54,0,2.61-3.07,4.81-6.45,6.41-10.15,1.52-3.51,3.3-7.87,2.72-11.76-.68-4.53-5.26-5.9-9.22-5.05-3.55.77-6.65,3.14-8.86,5.95-2.98,3.8-4.46,8.43-5.84,12.99-.94,3.09,3.89,4.4,4.82,1.33h0Z"/>
  </g>
  <path class="cls-4" d="m76.38,86.37l-1.64-6.86c-.25-1.02-1.35-1.88-2.41-1.84s-2.18.74-2.41,1.84c-.59,2.78-.12,5.82,1.57,8.16.39.54.83.97,1.49,1.15.6.16,1.4.09,1.93-.25s1-.86,1.15-1.49.14-1.39-.25-1.93c-.35-.48-.64-1-.87-1.55l.25.6c-.27-.65-.45-1.33-.55-2.03l.09.66c-.08-.67-.09-1.33,0-2l-.09.66c.03-.22.07-.44.11-.66h-4.82l1.64,6.86c.31,1.27,1.82,2.15,3.08,1.75,1.32-.43,2.07-1.71,1.75-3.08h0Z"/>
  <path class="cls-4" d="m117.36,89.99c0-.2.02-.39.05-.59l-.09.66c.07-.51.21-1.01.41-1.49l-.25.6c.21-.5.49-.97.82-1.4l-.39.51c.31-.39.65-.74,1.04-1.04l-.51.39c.16-.12.32-.23.48-.34l-3.67-2.82c-.4,1.38-.8,2.75-1.2,4.13-.18.62-.07,1.37.25,1.93.3.52.9,1.01,1.49,1.15.64.15,1.36.11,1.93-.25s.96-.85,1.15-1.49c.4-1.38.8-2.75,1.2-4.13.12-.41.11-.92,0-1.33-.14-.53-.47-.97-.9-1.3-.77-.59-1.93-.73-2.78-.2-2.43,1.53-3.93,4.15-4.04,7.01-.02.62.3,1.33.73,1.77s1.15.76,1.77.73c1.4-.06,2.44-1.1,2.5-2.5h0Z"/>
  <path class="cls-4" d="m84.54,99.06c-18.88-3.81-38.16-5.66-57.41-5.41-5.48.07-10.97.31-16.44.72-1.35.1-2.5,1.08-2.5,2.5,0,1.28,1.15,2.6,2.5,2.5,18.83-1.39,37.84-.85,56.54,1.78,5.35.75,10.68,1.67,15.98,2.74,1.32.27,2.7-.38,3.08-1.75.34-1.23-.42-2.81-1.75-3.08h0Z"/>
  <path class="cls-4" d="m85.92,100.15c-11.18-1.79-22.29.38-33.08,3.29s-21.6,6.07-32.4,9.12c-6.23,1.76-12.45,3.52-18.68,5.27-3.09.87-1.78,5.7,1.33,4.82,10.7-3.02,21.39-6.04,32.09-9.06s20.97-6.42,31.72-8.23c5.81-.98,11.84-1.33,17.69-.4,1.33.21,2.69-.34,3.08-1.75.33-1.19-.41-2.86-1.75-3.08h0Z"/>
  <path class="cls-4" d="m103.44,104.88c20.33.5,40.68.08,60.97-1.31,5.77-.39,11.54-.87,17.3-1.41,1.34-.13,2.5-1.06,2.5-2.5,0-1.25-1.15-2.63-2.5-2.5-20.25,1.92-40.58,2.9-60.91,2.93-5.79,0-11.57-.06-17.36-.21-3.22-.08-3.22,4.92,0,5h0Z"/>
  <path class="cls-4" d="m105.53,107.89c8.49-.07,16.87,3.22,24.53,6.6,7.75,3.42,15.15,7.61,22.1,12.45,1.11.77,2.78.2,3.42-.9.73-1.25.21-2.65-.9-3.42-7.2-5.02-14.88-9.33-22.93-12.81s-17.1-6.99-26.22-6.92c-3.22.03-3.22,5.03,0,5h0Z"/>
  <g>
    <path class="cls-3" d="m43.01,46.36c-3.87-14.62-7.75-29.24-11.62-43.87,13.86,8.21,26.87,17.85,38.75,28.74"/>
    <path class="cls-4" d="m45.42,45.7c-3.87-14.62-7.75-29.24-11.62-43.87l-3.67,2.82c13.69,8.12,26.5,17.61,38.24,28.35,2.37,2.17,5.92-1.36,3.54-3.54C59.86,18.45,46.69,8.67,32.65.34c-1.89-1.12-4.23.73-3.67,2.82,3.87,14.62,7.75,29.24,11.62,43.87.82,3.11,5.65,1.79,4.82-1.33h0Z"/>
  </g>
  <g>
    <path class="cls-3" d="m128.04,43.61c8.91-8.56,19.78-15.07,31.54-18.89-5.6,10.11-9.33,21.25-10.96,32.7"/>
    <path class="cls-4" d="m129.81,45.38c8.64-8.26,19.07-14.53,30.43-18.24l-2.82-3.67c-5.69,10.33-9.53,21.62-11.22,33.29-.19,1.33.33,2.69,1.75,3.08,1.17.32,2.88-.4,3.08-1.75,1.63-11.26,5.23-22.13,10.71-32.1,1-1.82-.67-4.38-2.82-3.67-12.19,3.99-23.37,10.66-32.64,19.53-2.33,2.23,1.21,5.76,3.54,3.54h0Z"/>
  </g>
  <path class="cls-4" d="m136.61,49.17c.36-.78.82-1.47,1.3-2.18-.45.66-.03.04.11-.12s.29-.33.45-.5c.29-.31.6-.6.92-.87.07-.06.14-.12.2-.17.31-.25-.02,0-.14.1.17-.14.36-.27.54-.39.35-.24.71-.46,1.08-.66.18-.1.35-.19.54-.27.1-.05.2-.09.3-.14.28-.13-.56.22-.17.07.42-.16.84-.31,1.27-.43l-3.16-2.41c-.37,2.98-.73,5.97-1.1,8.95-.07.59.33,1.37.73,1.77.43.43,1.15.76,1.77.73s1.32-.24,1.77-.73c.48-.52.65-1.07.73-1.77.37-2.98.73-5.97,1.1-8.95.09-.76-.42-1.53-.99-1.96-.62-.48-1.41-.66-2.18-.45-4.03,1.13-7.61,4.04-9.39,7.85-.29.62-.44,1.24-.25,1.93.16.58.61,1.21,1.15,1.49,1.11.58,2.83.37,3.42-.9h0Z"/>
  <path class="cls-4" d="m53.21,38.52l-.75-7.28-3.16,2.41c.23.09.45.17.67.27l-.6-.25c1.34.57,2.6,1.3,3.75,2.18l-.51-.39c.86.67,1.66,1.41,2.38,2.22.87.98,2.66.96,3.54,0,.96-1.05.93-2.49,0-3.54-2.15-2.42-4.9-4.19-7.92-5.32-1.43-.54-3.32.87-3.16,2.41l.75,7.28c.07.68.23,1.27.73,1.77.43.43,1.15.76,1.77.73s1.32-.24,1.77-.73c.42-.46.8-1.12.73-1.77h0Z"/>
  <g>
    <path class="cls-5" d="m55.77,139.54C22.54,171.78,6.96,221.21,15.71,266.69c1.74,9.03,4.42,18.01,9.23,25.85,3.12,5.09,7.1,9.63,11.61,13.53,12.85,11.09,29.77,16.73,46.69,18.17s33.94-1.06,50.52-4.68c9.31-2.03,18.86-4.58,26.27-10.57,9.05-7.32,13.61-18.7,17.65-29.62,5.67-15.36,11.06-31.02,12.72-47.31s-.71-33.47-9.57-47.24c-11.89-18.49-33.29-28.18-49.73-42.76"/>
    <path class="cls-4" d="m54,137.77c-11.4,11.09-20.83,24.19-27.87,38.45-7.02,14.22-11.78,29.55-13.93,45.27s-1.79,32.25,1.53,48.05c1.87,8.88,4.78,17.72,9.74,25.38s11.37,13.71,18.79,18.57c14.77,9.67,32.69,13.56,50.16,13.67,9.93.06,19.83-1.05,29.6-2.74,9-1.55,18.26-3.22,26.83-6.46,4.04-1.53,7.96-3.43,11.43-6.03s6.24-5.54,8.72-8.95c4.83-6.62,7.88-14.38,10.72-22.01,6.61-17.77,12.92-36.13,13.59-55.26.6-17.31-3.71-34.68-14.82-48.24-10.1-12.34-24.13-20.56-36.76-29.99-3.06-2.28-6.04-4.66-8.9-7.18-1.01-.89-2.54-1-3.54,0-.91.91-1.02,2.64,0,3.54,11.61,10.26,25.27,17.86,36.85,28.13,5.68,5.03,10.76,10.72,14.43,17.39,3.96,7.18,6.29,15.26,7.22,23.39,2.06,17.93-2.14,35.68-7.82,52.59-2.72,8.11-5.5,16.32-9.05,24.11-3.16,6.94-7.27,13.84-13.53,18.41-6.67,4.88-14.74,7.14-22.7,8.93-9.25,2.09-18.6,3.82-28.05,4.71-17.27,1.63-35.25.47-51.31-6.6-7.55-3.33-14.58-7.86-20.42-13.71-6.14-6.15-10.57-13.58-13.38-21.79-5.09-14.88-6.47-31.21-5.5-46.84.95-15.26,4.47-30.34,10.19-44.51,5.65-14,13.63-27.18,23.54-38.58,2.46-2.83,5.04-5.55,7.73-8.16,2.31-2.25-1.23-5.78-3.54-3.54h0Z"/>
  </g>
  <g>
    <path class="cls-3" d="m73.51,146.21c-9.91,6.01-15.83,16.78-20.68,27.31-9.35,20.31-16.44,41.66-21.1,63.53-2.73,12.8-4.45,26.88,1.83,38.37,8.59,15.71,28.43,20.61,46.02,23.95,11.65,2.21,23.43,4.43,35.27,3.85,11.84-.59,23.93-4.26,32.51-12.44,14.98-14.27,15.63-37.54,15.25-58.22-.13-7.35-.28-14.79-2.32-21.85-2.81-9.71-9.02-18.03-15.1-26.11-9.24-12.28-18.48-24.55-27.72-36.83"/>
    <path class="cls-4" d="m72.25,144.05c-11.88,7.31-18.17,20.38-23.6,32.7-6.39,14.51-11.69,29.49-15.77,44.81-1.96,7.37-3.78,14.84-4.97,22.37s-1.63,14.41-.37,21.58c1.16,6.59,4.08,12.73,8.54,17.71,3.93,4.38,8.95,7.73,14.25,10.23,11.72,5.54,24.79,7.76,37.47,9.96,14.98,2.6,30.8,4.1,45.38-1.24,6.46-2.36,12.48-5.94,17.26-10.95,4.31-4.52,7.46-9.92,9.69-15.73,4.57-11.91,5.12-25.09,5.05-37.7-.04-7.43-.03-14.94-1.25-22.29-1.24-7.45-4.35-14.32-8.38-20.66s-8.95-12.52-13.56-18.65c-5.02-6.67-10.03-13.33-15.05-20-2.43-3.23-4.87-6.47-7.3-9.7-.81-1.08-2.16-1.63-3.42-.9-1.06.62-1.71,2.34-.9,3.42,9.67,12.86,19.38,25.69,29.02,38.57,4.15,5.55,8.25,11.23,11.19,17.53,3.14,6.73,4.14,13.97,4.43,21.33.48,12.42.74,25.27-1.74,37.51-2.34,11.55-7.65,22.54-17.8,29.13-11.71,7.59-26.13,8.56-39.65,7.18-7.6-.77-15.13-2.24-22.62-3.71-5.75-1.13-11.49-2.41-17.07-4.22-10.5-3.4-20.85-9.04-25.94-19.3-6.1-12.31-2.9-27.19.02-39.9,3.39-14.78,7.89-29.31,13.45-43.42,2.66-6.76,5.52-13.47,8.78-19.96,2.8-5.58,6.01-11.06,10.33-15.62,2.11-2.22,4.43-4.17,7.04-5.77s.23-6.01-2.52-4.32h0Z"/>
  </g>
  <g>
    <path class="cls-5" d="m180.12,273.3c8.07-1.11,15.9-3.97,22.78-8.33,5.84-3.7,10.97-8.41,15.93-13.23,7.99-7.76,15.67-15.85,22.99-24.25,1.99-2.29,4.2-4.74,7.19-5.27,5.81-1.04,10.2,6.31,8.78,12.04s-6.3,9.81-10.81,13.62c-10.99,9.29-21.38,19.38-33.43,27.24s-26.18,13.46-40.53,12.44"/>
    <path class="cls-4" d="m180.78,275.71c6.85-.97,13.49-3.15,19.61-6.39s11.78-7.87,16.94-12.69,10.59-10.32,15.67-15.7c2.51-2.66,4.99-5.36,7.43-8.09,2.11-2.37,4.15-5.34,6.78-7.16,1.95-1.34,3.75-1.44,5.48-.09,1.45,1.13,2.52,3.27,2.81,5.28.76,5.25-4.17,9.95-7.92,13.22-5.23,4.57-10.5,9.1-15.75,13.65-5.33,4.62-10.74,9.15-16.53,13.18-12.37,8.62-26.9,15.15-42.28,14.13-1.35-.09-2.5,1.21-2.5,2.5,0,1.43,1.15,2.41,2.5,2.5,31.03,2.05,54.29-22.27,76.03-40.66,4.73-4,10.11-8.66,11.28-15.08,1.02-5.54-1.77-12.03-7.21-14.14-7.08-2.74-12.19,4.62-16.22,9.13-5.2,5.82-10.56,11.48-16.09,16.99-5.86,5.83-11.8,11.79-18.79,16.28-6.84,4.4-14.53,7.18-22.57,8.32-1.34.19-2.07,1.89-1.75,3.08.4,1.44,1.73,1.94,3.08,1.75h0Z"/>
  </g>
</svg>