<?xml version="1.0" encoding="UTF-8"?>
<svg id="Layer_1" data-name="Layer 1" xmlns="http://www.w3.org/2000/svg" viewBox="0 0 221.96 387.77">
  <defs>
    <style>
      .cls-1 {
        fill: #f9ff5f;
      }

      .cls-2 {
        fill: #fff;
      }

      .cls-3 {
        fill: #fc5;
      }

      .cls-4 {
        fill: #ff4000;
      }

      .cls-5 {
        fill: #231f20;
      }

      .cls-6 {
        fill: none;
        stroke: #231f20;
        stroke-miterlimit: 10;
      }
    </style>
  </defs>
  <g>
    <path class="cls-3" d="m117.6,92.33c10.75-1.73,21.63-2.59,32.52-2.58,6.73,0,13.68.4,19.74,3.33,7.44,3.6,12.65,10.6,16.67,17.82,7.35,13.19,11.75,28.02,12.78,43.09.3,4.46.3,9.03-1.07,13.29-2.31,7.17-8.35,12.67-15.14,15.93s-14.33,4.55-21.79,5.58c-20.55,2.84-41.33,4-62.07,3.44-10-.27-20.97-1.35-27.97-8.49-4.96-5.06-6.97-12.27-8.38-19.21-1.61-7.94-2.69-15.98-3.22-24.06-.31-4.73-.42-9.6,1.05-14.11,2.52-7.71,9.27-13.24,16.15-17.53,16.94-10.56,36.82-16.36,56.78-16.56"/>
    <path class="cls-5" d="m118.26,94.74c7.32-1.17,14.7-1.92,22.11-2.27,6.75-.32,13.81-.69,20.5.46,6.11,1.05,11.32,3.71,15.63,8.17,4.29,4.45,7.43,9.92,10.16,15.43,5.9,11.91,9.44,25.11,10.2,38.38.37,6.36-.29,12.58-4.29,17.78-3.49,4.53-8.56,7.71-13.87,9.68-6.36,2.36-13.14,3.36-19.84,4.24-7.51.99-15.05,1.75-22.6,2.29s-14.8.84-22.21.93c-6.85.09-13.75.13-20.58-.38-5.51-.41-11.23-1.36-16.08-4.15s-8.17-7.75-9.99-13.22c-2.11-6.34-3.16-13.12-4.05-19.73-.49-3.63-.86-7.28-1.12-10.93-.24-3.41-.46-6.88-.04-10.28,1.53-12.39,13.91-19.57,23.98-24.71,11.74-5.99,24.68-9.82,37.8-11.14,3.21-.32,6.44-.5,9.67-.53s3.22-5.04,0-5c-14.16.17-28.3,3.02-41.4,8.42-6.47,2.67-12.76,5.86-18.6,9.74-5.2,3.46-10.2,7.65-13.31,13.16-3.63,6.42-3.6,13.68-3.07,20.83.58,7.81,1.65,15.6,3.21,23.27,1.29,6.33,3.07,12.81,7.05,18.01s9.47,8.12,15.56,9.68,12.72,1.8,19.1,1.92c7.9.15,15.81.05,23.7-.3s15.78-.94,23.64-1.77,15.25-1.63,22.7-3.28c12.43-2.76,25.76-9.86,28.9-23.28,1.69-7.19.67-15-.5-22.19-1.15-7.09-3.03-14.05-5.62-20.75s-5.44-12.63-9.21-18.33c-3.53-5.35-7.95-10.35-13.65-13.43-6.34-3.43-13.64-4.13-20.73-4.2-7.75-.08-15.51.33-23.21,1.15-3.78.4-7.54.91-11.29,1.51-1.33.21-2.08,1.88-1.75,3.08.39,1.42,1.74,1.96,3.08,1.75h0Z"/>
  </g>
  <g>
    <path class="cls-3" d="m66.93,115.56c-2.55-11.84-3.69-23.98-3.39-36.09,4.28-1.75,8.45,2.32,12.02,5.26,6.37,5.25,15.04,8.02,19.48,14.98"/>
    <path class="cls-5" d="m69.34,114.89c-2.49-11.64-3.57-23.52-3.3-35.42l-1.84,2.41c2.73-1.01,5.26,1.05,7.28,2.7,2.49,2.04,4.94,4.03,7.68,5.74,4.86,3.05,10.48,5.7,13.72,10.65,1.75,2.68,6.08.18,4.32-2.52-3.84-5.87-10.07-9-15.83-12.65-2.96-1.88-5.5-4.21-8.3-6.29s-6.57-3.8-10.19-2.46c-1.07.4-1.81,1.24-1.84,2.41-.29,12.34.9,24.68,3.48,36.75.67,3.15,5.49,1.81,4.82-1.33h0Z"/>
  </g>
  <path class="cls-5" d="m74.98,109.84c-1.22-7.34-2.75-14.62-4.59-21.83l-2.41,3.16c.21.02.61.09,1.13.23.25.07.49.15.73.23.39.13,0-.01.23.08.9.4,1.75.93,2.55,1.5.56.4,1.25,1.01,1.96,1.66.78.71,1.53,1.46,2.28,2.2,3.06,3.01,6.33,6.12,10.63,7.17,3.12.77,4.46-4.05,1.33-4.82-1.65-.4-3.43-1.41-4.69-2.43-1.67-1.37-3.18-2.92-4.72-4.42-3.26-3.17-6.76-5.93-11.43-6.4-1.67-.17-2.78,1.73-2.41,3.16,1.84,7.21,3.37,14.49,4.59,21.83.22,1.33,1.87,2.08,3.08,1.75,1.41-.39,1.97-1.74,1.75-3.08h0Z"/>
  <g>
    <path class="cls-3" d="m152.25,88.51c9.44-9.07,20.03-16.93,31.43-23.35.32-.18.67-.36,1.02-.27.55.14.72.82.78,1.39,1.29,11.2.36,22.64-2.74,33.48"/>
    <path class="cls-5" d="m154.02,90.28c4.68-4.48,9.62-8.69,14.83-12.54,2.63-1.94,5.33-3.8,8.07-5.58,1.31-.85,2.64-1.67,3.97-2.48.7-.42,1.4-.84,2.11-1.25.39-.22.77-.45,1.16-.67l.39-.22c.47-.23.52-.28.15-.15l-1.26-.34c-.36-.16-.39-1.15-.41-.35,0,.24.05.5.08.75.07.7.13,1.4.19,2.1.11,1.4.18,2.81.22,4.22.08,2.89.01,5.79-.2,8.68-.41,5.64-1.44,11.2-2.98,16.64-.88,3.1,3.95,4.43,4.82,1.33,3-10.6,4.06-21.78,2.98-32.74-.12-1.17-.12-2.46-.7-3.51-.74-1.34-2.24-2.05-3.75-1.69-1.2.28-2.35,1.14-3.4,1.75-1.22.71-2.43,1.44-3.63,2.19-4.36,2.71-8.58,5.63-12.65,8.76-4.71,3.62-9.23,7.47-13.53,11.58-2.33,2.23,1.21,5.76,3.54,3.54h0Z"/>
  </g>
  <path class="cls-5" d="m165.22,90.02c2.98-3.61,6.4-6.85,10.24-9.52l-3.67-1.49c2.32,5.62,3.87,11.56,4.44,17.62.13,1.34,1.06,2.5,2.5,2.5,1.25,0,2.63-1.15,2.5-2.5-.62-6.52-2.12-12.89-4.62-18.95-.56-1.36-2.2-2.52-3.67-1.49-4.2,2.92-8,6.35-11.25,10.3-.86,1.04-1.02,2.52,0,3.54.88.88,2.67,1.05,3.54,0h0Z"/>
  <path class="cls-5" d="m121.21,145.22c6.38-1.59,12.75-3.18,19.13-4.77l-2.82-3.67c-3.5,4.78-7.01,9.57-10.51,14.35l3.93-.51c-3.43-3.24-6.87-6.47-10.3-9.71-2.34-2.21-5.88,1.32-3.54,3.54,3.43,3.24,6.87,6.47,10.3,9.71,1.27,1.19,2.97.8,3.93-.51,3.5-4.78,7.01-9.57,10.51-14.35,1.36-1.86-.88-4.16-2.82-3.67-6.38,1.59-12.75,3.18-19.13,4.77-3.12.78-1.8,5.6,1.33,4.82h0Z"/>
  <path class="cls-5" d="m126.78,151.05c-.12,5.65.92,11.34,3.11,16.56.5,1.2,1.68,2.2,3.08,1.75,1.15-.37,2.29-1.78,1.75-3.08-2.09-4.99-3.05-9.93-2.93-15.23.03-1.31-1.17-2.56-2.5-2.5s-2.47,1.1-2.5,2.5h0Z"/>
  <g>
    <path class="cls-3" d="m74.73,184.64c-9.34,46.07-4.47,94.92,13.77,138.24,4.96,11.78,11,23.33,19.86,32.54,8.86,9.21,20.86,15.94,33.63,16.32,21.94.65,40.12-16.77,52.62-34.82,5.22-7.53,9.98-15.45,13.2-24.03,3.58-9.54,5.17-19.69,6.73-29.75,3.03-19.45,6.07-39.1,4.53-58.72s-8.11-39.5-21.9-53.53"/>
    <path class="cls-5" d="m72.32,183.98c-3.13,15.53-4.73,31.36-4.72,47.2,0,15.84,1.59,31.68,4.68,47.22s7.7,30.62,13.81,45.15,13.1,27.61,24.61,37.55c10.94,9.44,24.99,14.88,39.49,12.58,13.47-2.14,25.15-10.64,34.36-20.31,4.84-5.09,9.16-10.67,13.11-16.47,4.48-6.58,8.51-13.45,11.56-20.82s4.94-15.61,6.34-23.67c1.45-8.36,2.72-16.77,3.86-25.17,2.28-16.75,3.67-33.72,1.28-50.53-1.99-14.02-6.69-28-15.03-39.54-2.05-2.84-4.29-5.53-6.73-8.04-2.25-2.31-5.79,1.23-3.54,3.54,9.54,9.77,15.47,22.39,18.63,35.58,3.61,15.08,3.45,30.75,1.94,46.1-.82,8.28-2.04,16.52-3.31,24.74-1.22,7.87-2.35,15.78-4.3,23.52-3.64,14.51-11.29,27.63-20.5,39.31-7.92,10.04-17.74,19.71-29.86,24.44-5.95,2.32-12.26,3.35-18.63,2.74-6.64-.64-13.02-3.21-18.64-6.73-12.18-7.64-20.35-19.92-26.46-32.66-6.5-13.54-11.37-27.94-14.94-42.52s-5.8-29.96-6.5-45.19.04-30.53,2.33-45.59c.57-3.71,1.22-7.41,1.97-11.09.27-1.32-.38-2.7-1.75-3.08-1.23-.34-2.81.42-3.08,1.75h0Z"/>
  </g>
  <g>
    <path class="cls-1" d="m93.24,192.34c1.79,38.87,7.15,77.58,16,115.47,2.26,9.68,5.38,20.23,13.76,25.58,4.47,2.85,9.88,3.81,15.16,4.28,8.6.77,17.76.27,25.07-4.33,10.58-6.67,14.53-19.95,17.44-32.11,4.63-19.35,8.71-38.96,9.25-58.84.54-19.88-2.63-40.19-11.81-57.84"/>
    <path class="cls-5" d="m90.74,192.34c1.17,25.17,3.82,50.26,7.92,75.12,2.03,12.32,4.43,24.58,7.18,36.75,2.19,9.66,4.38,20.34,11.49,27.74,3.75,3.9,8.7,6.19,13.95,7.27s11.07,1.49,16.55,1.14,11.1-1.6,15.94-4.43c4.2-2.46,7.62-6.02,10.29-10.07,5.52-8.41,7.76-18.56,10.02-28.22,2.85-12.19,5.37-24.47,6.91-36.9,2.88-23.26,2-47.71-7.1-69.61-1.11-2.66-2.31-5.28-3.63-7.84-1.48-2.86-5.8-.33-4.32,2.52,10.32,19.94,12.69,42.92,11.03,65.05-.9,11.96-2.96,23.79-5.48,35.5-1.21,5.65-2.49,11.3-3.91,16.9-1.12,4.45-2.38,8.9-4.17,13.13s-3.92,7.91-6.95,11.07c-3.31,3.45-7.45,5.72-12.08,6.89-5.02,1.27-10.27,1.29-15.4.89s-10.36-1.22-14.73-4.01c-7.67-4.9-10.37-14.69-12.36-23.01-2.77-11.55-5.12-23.21-7.19-34.91-4.21-23.81-7.04-47.86-8.5-71.99-.18-2.99-.34-5.99-.48-8.99-.15-3.2-5.15-3.22-5,0h0Z"/>
  </g>
  <path class="cls-6" d="m70.57,238.5l23.97-3.16"/>
  <path class="cls-6" d="m69.88,247.32c8.47.61,17.01.25,25.4-1.06"/>
  <path class="cls-6" d="m189.4,233.17c9.66-.86,19.44-.31,28.95,1.61"/>
  <path class="cls-6" d="m190.31,245.69c8.9,4.3,19.36,5.26,28.9,2.66"/>
  <path class="cls-6" d="m82.17,299.43c7.55-1.28,14.92-3.65,21.79-7.02"/>
  <path class="cls-6" d="m84.3,313.87c7.79-2.46,15.59-4.91,23.38-7.37"/>
  <path class="cls-6" d="m180.67,301.78c6.9,6.68,17.41,7.48,27,7.9"/>
  <path class="cls-6" d="m184.59,286c8.75,3.5,17.97,5.81,27.34,6.85"/>
  <path class="cls-6" d="m134.23,337.98c-2.27,9.68-5.27,19.19-8.99,28.41"/>
  <path class="cls-6" d="m142.76,340.28c3.25,10.14,2.73,21.44-1.43,31.25"/>
  <g>
    <path class="cls-3" d="m108.73,356.14c-14.41,9.67-31.7,16.15-48.96,14.34-17.26-1.81-34.09-13.26-38.82-29.96-1.12-3.96-1.6-8.18-3.65-11.74s-6.42-6.3-10.25-4.79c-3.07,1.21-4.68,4.77-4.59,8.07s1.53,6.39,3.01,9.33c4.13,8.21,8.83,16.13,14.05,23.7,2.34,3.4,4.86,6.79,8.25,9.14,3.21,2.22,7.01,3.39,10.75,4.5,17.22,5.14,35.99,9.84,52.8,3.48,10-3.78,18.38-11.21,28.58-14.42"/>
    <path class="cls-5" d="m107.47,353.98c-15.62,10.44-35.45,17.71-54.29,12.75-7.77-2.04-15.06-6.03-20.74-11.74-2.77-2.78-5.1-5.95-6.87-9.46-1.98-3.92-2.7-8.13-3.85-12.32-1.23-4.5-3.53-8.97-7.95-11.05s-9.2-.98-11.92,3.09-2.1,9.23-.33,13.53c2.05,4.96,4.77,9.71,7.46,14.35s5.49,9.05,8.5,13.4c2.84,4.1,5.94,8.11,10.3,10.67s9.42,3.78,14.22,5.16c5.08,1.46,10.21,2.79,15.41,3.77,10.12,1.9,20.69,2.54,30.72-.24,9.51-2.64,17.32-8.69,26.04-13.05,2.07-1.03,4.18-1.93,6.39-2.63,3.05-.98,1.75-5.81-1.33-4.82-9,2.89-16.5,8.73-24.93,12.83-8.79,4.27-18.48,5.17-28.1,4.2s-19.64-3.75-29.09-6.71c-4.62-1.45-8.56-3.41-11.8-7.09s-5.81-7.9-8.38-12c-2.73-4.35-5.3-8.81-7.69-13.36-1.95-3.7-4.99-8.36-4.17-12.75.63-3.32,3.41-5.52,6.67-3.77,3.88,2.09,4.91,6.55,5.83,10.51.97,4.16,2.19,8.15,4.26,11.92,1.91,3.48,4.39,6.7,7.2,9.5,5.75,5.73,13,9.9,20.73,12.3,18.22,5.65,37.99.39,54.08-8.84,2.1-1.2,4.14-2.48,6.15-3.82,2.66-1.78.16-6.11-2.52-4.32h0Z"/>
  </g>
  <path class="cls-6" d="m21.29,348.12c-2.47,2.48-5.44,4.46-8.68,5.78,3.18-1.86,5.21-4.56,8.68-5.78Z"/>
  <path class="cls-6" d="m17.69,360.44c3.32-1.13,6.24-3.44,8.1-6.41"/>
  <path class="cls-6" d="m54.3,368.92c-3.49,5.1-16.86,5.86-22.84,7.39,4.6-.71,8.67-4.18,10.1-8.61"/>
  <path class="cls-6" d="m63.27,383.5c5.9-3.19,10.94-7.97,14.44-13.69-1.11,6,2.11,11.62-2.92,15.07"/>
  <path class="cls-6" d="m96.56,377.18l-3.5-10.19c1.62,3.66,1.89,6.53,3.5,10.19Z"/>
  <path class="cls-6" d="m104.6,359.78c2.09,3.84,3.62,7.98,4.52,12.26"/>
  <path class="cls-5" d="m95.17,195.2c11.65,3.27,23.74,5.01,35.83,5.14,6.06.06,12.12-.28,18.13-1.04,4.97-.63,9.94-1.5,14.66-3.22,5.26-1.91,10.2-4.77,13.88-9.05.88-1.02,1.01-2.53,0-3.54-.9-.9-2.65-1.03-3.54,0-6.08,7.08-15.59,9.55-24.49,10.73-11.31,1.5-22.85,1.47-34.17.04-6.41-.81-12.76-2.15-18.97-3.9-3.1-.87-4.43,3.95-1.33,4.82h0Z"/>
  <g>
    <path class="cls-2" d="m93.53,119c-.96-.5-2.21.13-2.73,1.09s-.47,2.11-.34,3.19c.34,2.72,1.24,5.49,3.23,7.38s5.25,2.6,7.54,1.09c1.99-1.32,2.76-3.89,2.85-6.28.1-2.62-.5-5.4-2.32-7.28s-5.03-2.54-7.12-.95"/>
    <path class="cls-5" d="m94.79,116.84c-1.34-.6-2.62-.66-3.97-.04-.98.45-1.81,1.27-2.28,2.23-1.01,2.05-.67,4.45-.2,6.6.89,4.02,3.35,7.75,7.42,9.02,1.98.62,4.12.5,6-.36s3.25-2.67,4.02-4.63c1.38-3.5,1.08-8.07-.8-11.33-2.21-3.83-7.7-6.1-11.6-3.27-1.06.77-1.68,2.21-.9,3.42.67,1.05,2.29,1.72,3.42.9.14-.1.27-.19.41-.28.07-.04.44-.26.14-.1-.33.18.21-.07.25-.08.13-.04.25-.06.38-.09.18-.04.39.02-.08,0,.13,0,.27-.02.4-.02.17,0,.33.02.5.02.29,0-.43-.12.03.01.33.09.65.17.97.29-.5-.18.17.1.32.19s.71.54.32.19c.13.11.25.22.37.34.05.05.49.53.31.32-.19-.22.1.14.13.19.1.15.2.31.29.47.15.26.28.52.4.79-.18-.42-.03-.06,0,.02.05.18.12.35.17.53.11.36.19.73.26,1.1.02.13.08.63.03.12.02.15.03.3.04.45.02.3.04.6.04.91,0,.33,0,.66-.03.99-.01.18-.03.35-.05.53.03-.36.03-.17-.02.08-.1.6-.27,1.18-.47,1.75.17-.48.02-.05-.04.08s-.13.25-.2.37c-.09.15-.18.29-.27.44-.26.42.28-.22-.12.14-.12.11-.69.59-.26.3-.12.08-.23.16-.35.23,0,0-.6.32-.26.15.29-.14-.11.03-.18.06-.16.05-.33.08-.5.13-.15.04-.43,0,.05,0-.21,0-.41.03-.62.02-.14,0-.28-.01-.42-.02-.48-.03-.05-.02.04,0-.31-.08-.62-.14-.92-.24-.13-.04-.56-.23-.1-.02-.13-.06-.26-.12-.38-.19-.31-.16-.62-.35-.9-.56.4.29-.18-.19-.31-.31-.13-.13-.26-.27-.39-.42-.04-.05-.33-.42-.16-.19.21.28-.21-.32-.2-.3-.08-.13-.16-.25-.24-.38-.19-.33-.35-.67-.52-1.01.19.39.02.05-.01-.03-.08-.22-.16-.43-.23-.65-.12-.36-.22-.73-.31-1.11s-.17-.75-.23-1.13c-.03-.15-.05-.3-.07-.45.08.54-.01-.14-.02-.25-.03-.39-.04-.78-.02-1.17-.02.48,0,0,.04-.13.03-.11.06-.22.1-.33-.09.2-.09.23-.02.09.26-.23-.3.29-.04.05.13-.12.09-.1-.14.08.08-.06.16-.11.25-.15.29-.2-.39.17-.07.05.19-.04.12-.03-.21.03-.2,0-.38-.05-.55-.17,1.19.53,2.74.39,3.42-.9.58-1.09.38-2.85-.9-3.42h0Z"/>
  </g>
  <g>
    <path class="cls-2" d="m148.58,111.35c-3.45.41-6.74,3.19-6.86,6.66s3.88,6.65,6.99,5.1c3.27-1.64,3.18-6.27,2.6-9.89"/>
    <path class="cls-5" d="m148.58,108.85c-3.14.41-5.88,1.87-7.77,4.46-1.78,2.43-2.06,5.62-.72,8.31,1.25,2.51,4.02,4.37,6.84,4.4,3.11.03,5.48-2.18,6.53-4.95s.69-5.76.25-8.51c-.2-1.3-1.89-2.13-3.08-1.75-1.41.46-1.97,1.69-1.75,3.08.02.12.04.25.06.38.02.1.07.45,0,.05-.07-.46,0,.06.01.13.01.1.02.21.03.31.05.47.08.95.1,1.43s.01.95-.01,1.42c-.01.21-.03.41-.05.62-.04.43.01-.17.03-.21-.05.13-.05.31-.08.45-.09.44-.21.85-.36,1.27-.09.25-.16.07.09-.2-.05.05-.09.18-.12.25-.11.21-.24.4-.36.6-.26.41.33-.34.09-.12-.07.06-.12.14-.19.2-.08.08-.17.16-.25.24-.2.2-.12-.07.17-.13-.16.03-.35.23-.49.31-.03.02-.24.09-.27.13.37-.15.43-.18.18-.09l-.14.04c-.12.03-.24.04-.36.08-.29.1.54,0,.23-.04-.12-.02-.52-.05-.65-.01.05-.02.63.13.23.03-.09-.02-.19-.04-.28-.07s-.19-.05-.28-.08c-.49-.16-.05-.12.05.03-.07-.1-.48-.25-.59-.32-.05-.03-.27-.22-.31-.21.03,0,.47.4.15.11-.15-.14-.31-.27-.45-.41-.07-.07-.14-.15-.21-.22-.38-.43.04-.08,0,.03.02-.06-.34-.52-.37-.58-.03-.06-.12-.32-.17-.34.04.02.21.59.08.18-.06-.19-.13-.38-.17-.58-.01-.04-.03-.25-.06-.3.05.42.06.49.04.21v-.15c-.01-.1-.01-.2,0-.31v-.16c.03-.22.03-.22,0,0l-.02.17c.02-.11.04-.21.06-.32.02-.11.05-.21.08-.31.02-.07.21-.6.2-.61.06.04-.24.49-.06.15.08-.14.14-.29.23-.43.06-.1.35-.68.44-.68-.08,0-.35.43-.03.06.09-.1.18-.2.28-.3.19-.2.4-.38.6-.56.41-.37-.34.23-.05.03.12-.08.23-.16.34-.24.26-.17.52-.32.79-.46.1-.05.2-.09.3-.15.17-.08.1-.05-.21.09.08-.03.16-.06.23-.09.26-.1.53-.18.8-.25.19-.05,1.19-.22.39-.11.69-.09,1.25-.22,1.77-.73.43-.43.76-1.15.73-1.77-.05-1.21-1.11-2.68-2.5-2.5h0Z"/>
  </g>
  <g>
    <path class="cls-4" d="m133.35,167.64c-1.92-.24-3.89-.48-5.76.02s-3.63,1.91-3.93,3.82c-.48,2.98,2.69,5.36,5.66,5.89,3.16.56,6.88-.36,8.47-3.15s-.45-7.22-3.65-6.93"/>
    <path class="cls-5" d="m133.35,165.14c-2.14-.27-4.32-.46-6.43.11-1.87.5-3.52,1.62-4.65,3.19s-1.49,3.69-.88,5.52,1.84,3.16,3.37,4.22c2.78,1.92,6.65,2.33,9.85,1.34s6.21-3.8,6.22-7.48-2.78-7.52-6.71-7.25c-1.3.09-2.56,1.09-2.5,2.5.06,1.28,1.1,2.6,2.5,2.5.12,0,.9-.05.45-.02-.49.03.04-.06.04.03l.07.02c.25.09.19.06-.18-.09.01.02.51.31.52.3-.13.05-.4-.36-.15-.11.11.11.22.22.33.33.33.31-.12-.1-.09-.14,0,0,.16.23.18.26.13.2.23.42.35.63.17.29-.18-.59-.04-.07.03.1.07.21.1.31s.06.21.08.32c.12.57-.06.02.01-.02-.04.02.02.57.02.65,0-.02-.03.32-.02.32-.13-.11.13-.58,0-.1-.03.1-.06.21-.08.31-.09.34-.08.07-.01.08l.06-.15c-.05.1-.1.19-.15.29-.08.14-.18.27-.26.4-.18.31.4-.4-.01.01-.09.09-.17.18-.26.27-.16.16-.64.52-.2.22-.23.16-.46.32-.71.45-.11.06-.22.12-.34.18-.09.04-.17.08-.26.12.28-.11.33-.14.15-.07-.53.16-1.04.32-1.59.43-.46.09,0,0,.08,0-.13.01-.26.03-.39.04-.33.02-.65.03-.98.02-.29,0-.58-.04-.88-.06-.37-.03.44.09.09,0-.16-.04-.32-.06-.48-.09-.26-.06-.51-.13-.76-.21-.12-.04-.25-.1-.38-.13.54.16-.02-.01-.14-.07-.24-.12-.47-.25-.7-.39-.14-.09-.27-.19-.41-.27-.3-.18.3.27.04.03-.21-.2-.43-.38-.63-.6-.09-.09-.17-.19-.25-.29.39.47.03,0-.03-.1-.03-.06-.18-.28-.17-.32-.02.12.13.43.05.1-.03-.11-.06-.24-.1-.35-.18-.51-.04.35,0,.04.01-.12,0-.25,0-.37s.11-.45,0-.14c-.13.38.08-.21.09-.24.11-.43-.14.18.02-.03.09-.13.17-.28.25-.42-.17.28-.14.17.04-.03.11-.12.24-.23.36-.35.32-.32-.19.09.05-.04.3-.16.58-.34.88-.5.33-.18-.54.14.06-.01.17-.04.34-.1.51-.15.21-.05.43-.1.64-.13-.34.05.12,0,.25-.01.44-.03.88-.03,1.31-.02.93.03,1.85.15,2.77.26,1.3.16,2.56-1.27,2.5-2.5-.07-1.49-1.1-2.33-2.5-2.5h0Z"/>
  </g>
  <path class="cls-5" d="m99.34,130.15c3.22,0,3.22-5,0-5s-3.22,5,0,5h0Z"/>
  <path class="cls-5" d="m144.99,117.83c3.22,0,3.22-5,0-5s-3.22,5,0,5h0Z"/>
  <path class="cls-5" d="m49.75,12.74c11.14,14.24,21.04,29.45,29.62,45.36,2.46,4.56,4.81,9.18,7.05,13.86.58,1.22,2.32,1.54,3.42.9,1.24-.73,1.48-2.2.9-3.42-7.97-16.64-17.35-32.59-28.03-47.63-3.04-4.28-6.18-8.47-9.41-12.6-.83-1.06-2.66-.87-3.54,0-1.05,1.05-.83,2.47,0,3.54h0Z"/>
  <path class="cls-5" d="m110.97,3.09c2.76,9.63,5.7,19.23,8.19,28.93s4.08,19.16,2.85,28.94c-.17,1.34,1.27,2.5,2.5,2.5,1.49,0,2.33-1.15,2.5-2.5,1.27-10.01-.45-20.1-2.91-29.8s-5.5-19.62-8.31-29.4c-.89-3.09-5.71-1.77-4.82,1.33h0Z"/>
  <path class="cls-5" d="m194.26,11.43c-13.22,9.99-22.07,24.5-30.88,38.25-2.76,4.3-5.47,8.63-8.14,12.98-1.69,2.75,2.63,5.26,4.32,2.52,4.58-7.46,9.29-14.85,14.11-22.16,4.21-6.38,8.53-12.72,13.64-18.42,2.89-3.22,6.02-6.26,9.47-8.87,1.08-.81,1.64-2.16.9-3.42-.62-1.06-2.34-1.72-3.42-.9h0Z"/>
</svg>