<?xml version="1.0" encoding="UTF-8"?>
<svg id="Layer_1" data-name="Layer 1" xmlns="http://www.w3.org/2000/svg" viewBox="0 0 221.96 325.39">
  <defs>
    <style>
      .cls-1 {
        fill: #f9ff5f;
      }

      .cls-2 {
        fill: #fc5;
      }

      .cls-3 {
        fill: #231f20;
      }

      .cls-4 {
        fill: none;
        stroke: #231f20;
        stroke-miterlimit: 10;
      }
    </style>
  </defs>
  <g>
    <path class="cls-2" d="m117.6,29.95c10.75-1.73,21.63-2.59,32.52-2.58,6.73,0,13.68.4,19.74,3.33,7.44,3.6,12.65,10.6,16.67,17.82,7.35,13.19,11.75,28.02,12.78,43.09.3,4.46.3,9.03-1.07,13.29-2.31,7.17-8.35,12.67-15.14,15.93s-14.33,4.55-21.79,5.58c-20.55,2.84-41.33,4-62.07,3.44-10-.27-20.97-1.35-27.97-8.49-4.96-5.06-6.97-12.27-8.38-19.21-1.61-7.94-2.69-15.98-3.22-24.06-.31-4.73-.42-9.6,1.05-14.11,2.52-7.71,9.27-13.24,16.15-17.53,16.94-10.56,36.82-16.36,56.78-16.56"/>
    <path class="cls-3" d="m118.26,32.36c7.32-1.17,14.7-1.92,22.11-2.27,6.75-.32,13.81-.69,20.5.46,6.11,1.05,11.32,3.71,15.63,8.17s7.43,9.92,10.16,15.43c5.9,11.91,9.44,25.11,10.2,38.38.37,6.36-.29,12.58-4.29,17.78-3.49,4.53-8.56,7.71-13.87,9.68-6.36,2.36-13.14,3.36-19.84,4.24-7.51.99-15.05,1.75-22.6,2.29s-14.8.84-22.21.93c-6.85.09-13.75.13-20.58-.38-5.51-.41-11.23-1.36-16.08-4.15s-8.17-7.75-9.99-13.22c-2.11-6.34-3.16-13.12-4.05-19.73-.49-3.63-.86-7.28-1.12-10.93-.24-3.41-.46-6.88-.04-10.28,1.53-12.39,13.91-19.57,23.98-24.71,11.74-5.99,24.68-9.82,37.8-11.14,3.21-.32,6.44-.5,9.67-.53s3.22-5.04,0-5c-14.16.17-28.3,3.02-41.4,8.42-6.47,2.67-12.76,5.86-18.6,9.74-5.2,3.46-10.2,7.65-13.31,13.16-3.63,6.42-3.6,13.68-3.07,20.83.58,7.81,1.65,15.6,3.21,23.27,1.29,6.33,3.07,12.81,7.05,18.01s9.47,8.12,15.56,9.68,12.72,1.8,19.1,1.92c7.9.15,15.81.05,23.7-.3s15.78-.94,23.64-1.77,15.25-1.63,22.7-3.28c12.43-2.76,25.76-9.86,28.9-23.28,1.69-7.19.67-15-.5-22.19s-3.03-14.05-5.62-20.75-5.44-12.63-9.21-18.33c-3.53-5.35-7.95-10.35-13.65-13.43-6.34-3.43-13.64-4.13-20.73-4.2-7.75-.08-15.51.33-23.21,1.15-3.78.4-7.54.91-11.29,1.51-1.33.21-2.08,1.88-1.75,3.08.39,1.42,1.74,1.96,3.08,1.75h0Z"/>
  </g>
  <g>
    <path class="cls-2" d="m66.93,53.18c-2.55-11.84-3.69-23.98-3.39-36.09,4.28-1.75,8.45,2.32,12.02,5.26,6.37,5.25,15.04,8.02,19.48,14.98"/>
    <path class="cls-3" d="m69.34,52.52c-2.49-11.64-3.57-23.52-3.3-35.42l-1.84,2.41c2.73-1.01,5.26,1.05,7.28,2.7,2.49,2.04,4.94,4.03,7.68,5.74,4.86,3.05,10.48,5.7,13.72,10.65,1.75,2.68,6.08.18,4.32-2.52-3.84-5.87-10.07-9-15.83-12.65-2.96-1.88-5.5-4.21-8.3-6.29s-6.57-3.8-10.19-2.46c-1.07.4-1.81,1.24-1.84,2.41-.29,12.34.9,24.68,3.48,36.75.67,3.15,5.49,1.81,4.82-1.33h0Z"/>
  </g>
  <path class="cls-3" d="m74.98,47.46c-1.22-7.34-2.75-14.62-4.59-21.83l-2.41,3.16c.21.02.61.09,1.13.23.25.07.49.15.73.23.39.13,0-.01.23.08.9.4,1.75.93,2.55,1.5.56.4,1.25,1.01,1.96,1.66.78.71,1.53,1.46,2.28,2.2,3.06,3.01,6.33,6.12,10.63,7.17,3.12.77,4.46-4.05,1.33-4.82-1.65-.4-3.43-1.41-4.69-2.43-1.67-1.37-3.18-2.92-4.72-4.42-3.26-3.17-6.76-5.93-11.43-6.4-1.67-.17-2.78,1.73-2.41,3.16,1.84,7.21,3.37,14.49,4.59,21.83.22,1.33,1.87,2.08,3.08,1.75,1.41-.39,1.97-1.74,1.75-3.08h0Z"/>
  <g>
    <path class="cls-2" d="m152.25,26.13c9.44-9.07,20.03-16.93,31.43-23.35.32-.18.67-.36,1.02-.27.55.14.72.82.78,1.39,1.29,11.2.36,22.64-2.74,33.48"/>
    <path class="cls-3" d="m154.02,27.9c4.68-4.48,9.62-8.69,14.83-12.54,2.63-1.94,5.33-3.8,8.07-5.58,1.31-.85,2.64-1.67,3.97-2.48.7-.42,1.4-.84,2.11-1.25.39-.22.77-.45,1.16-.67l.39-.22c.47-.23.52-.28.15-.15l-1.26-.34c-.36-.16-.39-1.15-.41-.35,0,.24.05.5.08.75.07.7.13,1.4.19,2.1.11,1.4.18,2.81.22,4.22.08,2.89.01,5.79-.2,8.68-.41,5.64-1.44,11.2-2.98,16.64-.88,3.1,3.95,4.43,4.82,1.33,3-10.6,4.06-21.78,2.98-32.74-.12-1.17-.12-2.46-.7-3.51-.74-1.34-2.24-2.05-3.75-1.69-1.2.28-2.35,1.14-3.4,1.75-1.22.71-2.43,1.44-3.63,2.19-4.36,2.71-8.58,5.63-12.65,8.76-4.71,3.62-9.23,7.47-13.53,11.58-2.33,2.23,1.21,5.76,3.54,3.54h0Z"/>
  </g>
  <path class="cls-3" d="m165.22,27.64c2.98-3.61,6.4-6.85,10.24-9.52l-3.67-1.49c2.32,5.62,3.87,11.56,4.44,17.62.13,1.34,1.06,2.5,2.5,2.5,1.25,0,2.63-1.15,2.5-2.5-.62-6.52-2.12-12.89-4.62-18.95-.56-1.36-2.2-2.52-3.67-1.49-4.2,2.92-8,6.35-11.25,10.3-.86,1.04-1.02,2.52,0,3.54.88.88,2.67,1.05,3.54,0h0Z"/>
  <path class="cls-3" d="m87.98,69.48c8.25,4.23,18.51,2.92,25.44-3.22,1.01-.9.91-2.62,0-3.54-1-1-2.52-.9-3.54,0-5.2,4.61-13.24,5.59-19.38,2.44-2.86-1.46-5.39,2.85-2.52,4.32h0Z"/>
  <path class="cls-3" d="m139.84,61.48c6.83,3.87,15.77,1.72,20.35-4.54.8-1.09.18-2.79-.9-3.42-1.27-.74-2.62-.2-3.42.9-.27.37.08-.08-.1.13-.12.14-.24.29-.37.43-.23.25-.47.49-.72.72-.14.13-.28.25-.43.37-.34.3.1-.06-.12.1-.28.2-.56.39-.85.57-.32.2-.65.38-.99.55-.17.09-.34.17-.51.25-.37.17.54-.19-.14.06s-1.37.46-2.08.62c-.16.03-1.07.18-.57.12-.38.05-.76.08-1.14.09-.34.01-.68.01-1.02,0-.19,0-.38-.02-.57-.03-.06,0-.68-.07-.35-.03s-.35-.06-.34-.06c-.15-.03-.3-.06-.44-.09-.37-.08-.73-.18-1.09-.3-.18-.06-.36-.12-.54-.19-.09-.03-.56-.25-.14-.05-.34-.16-.68-.33-1.01-.52-1.17-.67-2.73-.28-3.42.9s-.28,2.75.9,3.42h0Z"/>
  <path class="cls-3" d="m121.21,82.84c6.38-1.59,12.75-3.18,19.13-4.77l-2.82-3.67c-3.5,4.78-7.01,9.57-10.51,14.35l3.93-.51c-3.43-3.24-6.87-6.47-10.3-9.71-2.34-2.21-5.88,1.32-3.54,3.54,3.43,3.24,6.87,6.47,10.3,9.71,1.27,1.19,2.97.8,3.93-.51,3.5-4.78,7.01-9.57,10.51-14.35,1.36-1.86-.88-4.16-2.82-3.67-6.38,1.59-12.75,3.18-19.13,4.77-3.12.78-1.8,5.6,1.33,4.82h0Z"/>
  <path class="cls-3" d="m126.78,88.67c-.12,5.65.92,11.34,3.11,16.56.5,1.2,1.68,2.2,3.08,1.75,1.15-.37,2.29-1.78,1.75-3.08-2.09-4.99-3.05-9.93-2.93-15.23.03-1.31-1.17-2.56-2.5-2.5s-2.47,1.1-2.5,2.5h0Z"/>
  <path class="cls-3" d="m90.19,81.87c7.61,10.29,18.04,18.13,30.04,22.59,2.94,1.09,6.02,2.06,9.13,2.59,1.92.33,3.6.12,5.35-.72,1.49-.72,2.89-1.69,4.26-2.61,5.17-3.51,9.88-7.7,13.92-12.47,4.72-5.57,8.47-11.77,11.29-18.49.52-1.25-.56-2.75-1.75-3.08-1.44-.4-2.55.5-3.08,1.75-4.35,10.37-11.64,19.68-20.67,26.38-1.16.86-2.35,1.68-3.56,2.46-1.09.7-2.38,1.8-3.7,1.97-1.21.16-2.71-.42-3.86-.72-1.4-.36-2.78-.77-4.15-1.23-5.4-1.81-10.5-4.43-15.18-7.67-5.24-3.63-9.94-8.15-13.73-13.28-.8-1.08-2.17-1.63-3.42-.9-1.07.63-1.7,2.33-.9,3.42h0Z"/>
  <g>
    <path class="cls-2" d="m74.73,122.26c-9.34,46.07-4.47,94.92,13.77,138.24,4.96,11.78,11,23.33,19.86,32.54,8.86,9.21,20.86,15.94,33.63,16.32,21.94.65,40.12-16.77,52.62-34.82,5.22-7.53,9.98-15.45,13.2-24.03,3.58-9.54,5.17-19.69,6.73-29.75,3.03-19.45,6.07-39.1,4.53-58.72s-8.11-39.5-21.9-53.53"/>
    <path class="cls-3" d="m72.32,121.6c-3.13,15.53-4.73,31.36-4.72,47.2,0,15.84,1.59,31.68,4.68,47.22s7.7,30.62,13.81,45.15,13.1,27.61,24.61,37.55c10.94,9.44,24.99,14.88,39.49,12.58,13.47-2.14,25.15-10.64,34.36-20.31,4.84-5.09,9.16-10.67,13.11-16.47,4.48-6.58,8.51-13.45,11.56-20.82s4.94-15.61,6.34-23.67c1.45-8.36,2.72-16.77,3.86-25.17,2.28-16.75,3.67-33.72,1.28-50.53-1.99-14.02-6.69-28-15.03-39.54-2.05-2.84-4.29-5.53-6.73-8.04-2.25-2.31-5.79,1.23-3.54,3.54,9.54,9.77,15.47,22.39,18.63,35.58,3.61,15.08,3.45,30.75,1.94,46.1-.82,8.28-2.04,16.52-3.31,24.74-1.22,7.87-2.35,15.78-4.3,23.52-3.64,14.51-11.29,27.63-20.5,39.31-7.92,10.04-17.74,19.71-29.86,24.44-5.95,2.32-12.26,3.35-18.63,2.74-6.64-.64-13.02-3.21-18.64-6.73-12.18-7.64-20.35-19.92-26.46-32.66-6.5-13.54-11.37-27.94-14.94-42.52s-5.8-29.96-6.5-45.19c-.69-15.22.04-30.53,2.33-45.59.57-3.71,1.22-7.41,1.97-11.09.27-1.32-.38-2.7-1.75-3.08-1.23-.34-2.81.42-3.08,1.75h0Z"/>
  </g>
  <g>
    <path class="cls-1" d="m93.24,129.97c1.79,38.87,7.15,77.58,16,115.47,2.26,9.68,5.38,20.23,13.76,25.58,4.47,2.85,9.88,3.81,15.16,4.28,8.6.77,17.76.27,25.07-4.33,10.58-6.67,14.53-19.95,17.44-32.11,4.63-19.35,8.71-38.96,9.25-58.84.54-19.88-2.63-40.19-11.81-57.84"/>
    <path class="cls-3" d="m90.74,129.97c1.17,25.17,3.82,50.26,7.92,75.12,2.03,12.32,4.43,24.58,7.18,36.75,2.19,9.66,4.38,20.34,11.49,27.74,3.75,3.9,8.7,6.19,13.95,7.27s11.07,1.49,16.55,1.14,11.1-1.6,15.94-4.43c4.2-2.46,7.62-6.02,10.29-10.07,5.52-8.41,7.76-18.56,10.02-28.22,2.85-12.19,5.37-24.47,6.91-36.9,2.88-23.26,2-47.71-7.1-69.61-1.11-2.66-2.31-5.28-3.63-7.84-1.48-2.86-5.8-.33-4.32,2.52,10.32,19.94,12.69,42.92,11.03,65.05-.9,11.96-2.96,23.79-5.48,35.5-1.21,5.65-2.49,11.3-3.91,16.9-1.12,4.45-2.38,8.9-4.17,13.13s-3.92,7.91-6.95,11.07c-3.31,3.45-7.45,5.72-12.08,6.89-5.02,1.27-10.27,1.29-15.4.89s-10.36-1.22-14.73-4.01c-7.67-4.9-10.37-14.69-12.36-23.01-2.77-11.55-5.12-23.21-7.19-34.91-4.21-23.81-7.04-47.86-8.5-71.99-.18-2.99-.34-5.99-.48-8.99-.15-3.2-5.15-3.22-5,0h0Z"/>
  </g>
  <path class="cls-4" d="m70.57,176.12l23.97-3.16"/>
  <path class="cls-4" d="m69.88,184.95c8.47.61,17.01.25,25.4-1.06"/>
  <path class="cls-4" d="m189.4,170.79c9.66-.86,19.44-.31,28.95,1.61"/>
  <path class="cls-4" d="m190.31,183.31c8.9,4.3,19.36,5.26,28.9,2.66"/>
  <path class="cls-4" d="m82.17,237.05c7.55-1.28,14.92-3.65,21.79-7.02"/>
  <path class="cls-4" d="m84.3,251.49c7.79-2.46,15.59-4.91,23.38-7.37"/>
  <path class="cls-4" d="m180.67,239.41c6.9,6.68,17.41,7.48,27,7.9"/>
  <path class="cls-4" d="m184.59,223.63c8.75,3.5,17.97,5.81,27.34,6.85"/>
  <path class="cls-4" d="m134.23,275.6c-2.27,9.68-5.27,19.19-8.99,28.41"/>
  <path class="cls-4" d="m142.76,277.9c3.25,10.14,2.73,21.44-1.43,31.25"/>
  <g>
    <path class="cls-2" d="m108.73,293.76c-14.41,9.67-31.7,16.15-48.96,14.34-17.26-1.81-34.09-13.26-38.82-29.96-1.12-3.96-1.6-8.18-3.65-11.74s-6.42-6.3-10.25-4.79c-3.07,1.21-4.68,4.77-4.59,8.07s1.53,6.39,3.01,9.33c4.13,8.21,8.83,16.13,14.05,23.7,2.34,3.4,4.86,6.79,8.25,9.14,3.21,2.22,7.01,3.39,10.75,4.5,17.22,5.14,35.99,9.84,52.8,3.48,10-3.78,18.38-11.21,28.58-14.42"/>
    <path class="cls-3" d="m107.47,291.61c-15.62,10.44-35.45,17.71-54.29,12.75-7.77-2.04-15.06-6.03-20.74-11.74-2.77-2.78-5.1-5.95-6.87-9.46-1.98-3.92-2.7-8.13-3.85-12.32-1.23-4.5-3.53-8.97-7.95-11.05s-9.2-.98-11.92,3.09-2.1,9.23-.33,13.53c2.05,4.96,4.77,9.71,7.46,14.35s5.49,9.05,8.5,13.4c2.84,4.1,5.94,8.11,10.3,10.67s9.42,3.78,14.22,5.16c5.08,1.46,10.21,2.79,15.41,3.77,10.12,1.9,20.69,2.54,30.72-.24,9.51-2.64,17.32-8.69,26.04-13.05,2.07-1.03,4.18-1.93,6.39-2.63,3.05-.98,1.75-5.81-1.33-4.82-9,2.89-16.5,8.73-24.93,12.83-8.79,4.27-18.48,5.17-28.1,4.2s-19.64-3.75-29.09-6.71c-4.62-1.45-8.56-3.41-11.8-7.09s-5.81-7.9-8.38-12c-2.73-4.35-5.3-8.81-7.69-13.36-1.95-3.7-4.99-8.36-4.17-12.75.63-3.32,3.41-5.52,6.67-3.77,3.88,2.09,4.91,6.55,5.83,10.51.97,4.16,2.19,8.15,4.26,11.92,1.91,3.48,4.39,6.7,7.2,9.5,5.75,5.73,13,9.9,20.73,12.3,18.22,5.65,37.99.39,54.08-8.84,2.1-1.2,4.14-2.48,6.15-3.82,2.66-1.78.16-6.11-2.52-4.32h0Z"/>
  </g>
  <path class="cls-4" d="m21.29,285.74c-2.47,2.48-5.44,4.46-8.68,5.78,3.18-1.86,5.21-4.56,8.68-5.78Z"/>
  <path class="cls-4" d="m17.69,298.06c3.32-1.13,6.24-3.44,8.1-6.41"/>
  <path class="cls-4" d="m54.3,306.54c-3.49,5.1-16.86,5.86-22.84,7.39,4.6-.71,8.67-4.18,10.1-8.61"/>
  <path class="cls-4" d="m63.27,321.12c5.9-3.19,10.94-7.97,14.44-13.69-1.11,6,2.11,11.62-2.92,15.07"/>
  <path class="cls-4" d="m96.56,314.81l-3.5-10.19c1.62,3.66,1.89,6.53,3.5,10.19Z"/>
  <path class="cls-4" d="m104.6,297.4c2.09,3.84,3.62,7.98,4.52,12.26"/>
  <path class="cls-3" d="m95.17,132.83c11.65,3.27,23.74,5.01,35.83,5.14,6.06.06,12.12-.28,18.13-1.04,4.97-.63,9.94-1.5,14.66-3.22,5.26-1.91,10.2-4.77,13.88-9.05.88-1.02,1.01-2.53,0-3.54-.9-.9-2.65-1.03-3.54,0-6.08,7.08-15.59,9.55-24.49,10.73-11.31,1.5-22.85,1.47-34.17.04-6.41-.81-12.76-2.15-18.97-3.9-3.1-.87-4.43,3.95-1.33,4.82h0Z"/>
</svg>